<?xml version="1.0" standalone="no"?>
<!DOCTYPE svg PUBLIC "-//W3C//DTD SVG 20010904//EN"
 "http://www.w3.org/TR/2001/REC-SVG-20010904/DTD/svg10.dtd">
<svg version="1.0" xmlns="http://www.w3.org/2000/svg"
 width="500.000000pt" height="500.000000pt" viewBox="0 0 500.000000 500.000000"
 preserveAspectRatio="xMidYMid meet">

<g transform="translate(0.000000,500.000000) scale(0.100000,-0.100000)"
fill="#000000" stroke="none">
<path d="M2433 4263 c-67 -3 -83 -7 -83 -19 0 -13 8 -14 43 -9 46 9 96 9 104
1 3 -2 -34 -70 -83 -150 -48 -81 -85 -148 -83 -150 2 -2 57 -1 122 1 92 5 117
9 117 20 0 12 -15 13 -85 7 -47 -4 -85 -3 -85 1 0 4 36 67 80 140 100 167 100
166 64 163 -16 -1 -66 -4 -111 -5z"/>
<path d="M2744 4198 c-47 -41 -64 -83 -64 -154 0 -52 3 -59 38 -94 29 -29 49
-40 85 -45 53 -8 122 12 150 43 46 51 64 170 32 218 -28 44 -74 64 -142 64
-56 0 -66 -3 -99 -32z m146 7 c43 -22 60 -53 60 -108 0 -57 -33 -140 -64 -161
-45 -29 -89 -24 -127 13 -25 26 -29 37 -29 87 0 75 28 133 77 162 45 26 46 26
83 7z"/>
<path d="M3181 4082 c-19 -9 -48 -34 -65 -55 -25 -31 -31 -49 -34 -100 -3 -52
-1 -66 18 -90 48 -61 146 -84 215 -51 81 38 121 173 73 244 -41 61 -141 86
-207 52z m138 -18 c53 -38 60 -112 16 -189 -43 -75 -96 -103 -152 -80 -63 27
-79 87 -44 167 30 69 73 102 151 117 3 1 16 -6 29 -15z"/>
<path d="M1648 4063 c-10 -2 -18 -6 -18 -9 0 -4 129 -282 136 -292 4 -6 164
71 164 79 0 19 -19 16 -53 -6 -69 -47 -72 -45 -141 102 -33 73 -63 132 -66
132 -3 -1 -13 -3 -22 -6z"/>
<path d="M2020 3905 c-15 -18 -5 -35 20 -35 10 0 22 5 25 10 7 11 -12 40 -25
40 -4 0 -13 -7 -20 -15z"/>
<path d="M3642 3667 c-106 -107 -111 -113 -95 -130 16 -16 20 -14 70 35 l53
52 27 -26 c60 -55 118 -64 158 -23 27 26 31 54 14 88 -12 23 -99 117 -109 117
-3 0 -56 -51 -118 -113z m173 38 c45 -44 22 -109 -41 -121 -24 -5 -37 0 -63
22 l-32 27 47 48 c27 27 52 49 57 49 4 0 19 -11 32 -25z"/>
<path d="M1210 3761 c-1 -17 115 -341 122 -341 12 0 10 23 -6 68 l-15 41 55
46 54 47 45 -18 c37 -14 48 -14 60 -4 9 7 12 17 8 21 -13 13 -323 148 -323
140z m118 -95 l71 -33 -43 -42 c-23 -22 -45 -41 -48 -41 -6 0 -58 128 -58 143
0 11 3 10 78 -27z"/>
<path d="M1603 3704 c-3 -8 -1 -20 5 -26 16 -16 42 -2 42 22 0 24 -38 28 -47
4z"/>
<path d="M3955 3410 c-49 -10 -123 -23 -163 -30 -82 -13 -90 -35 -9 -25 l52 6
38 -60 38 -60 -26 -40 c-25 -36 -26 -42 -12 -61 14 -20 19 -14 111 130 53 83
96 153 96 155 0 8 -27 4 -125 -15z m55 -15 c0 -3 -20 -35 -43 -70 l-44 -65
-36 55 c-42 62 -48 53 53 74 56 11 70 12 70 6z"/>
<path d="M1224 3356 c-8 -21 3 -36 27 -36 15 0 20 6 17 22 -4 27 -35 37 -44
14z"/>
<path d="M872 3337 c-32 -34 -52 -91 -52 -150 0 -44 6 -62 29 -94 53 -73 152
-92 221 -43 32 23 76 90 90 139 8 29 6 31 -46 61 -29 16 -56 30 -58 30 -3 0
-10 -9 -16 -20 -10 -18 -5 -23 45 -47 30 -15 55 -32 55 -39 0 -20 -58 -92 -79
-99 -83 -26 -181 20 -210 98 -20 52 -13 84 26 127 23 27 33 44 26 51 -6 6 -17
1 -31 -14z"/>
<path d="M4073 3102 c-105 -42 -143 -61 -143 -74 0 -28 15 -29 80 -2 60 24 90
26 90 5 0 -6 -25 -49 -56 -96 -51 -79 -54 -86 -41 -106 15 -20 16 -19 43 28
35 62 67 117 70 121 1 2 15 -11 32 -28 17 -16 37 -30 46 -30 44 0 87 43 86 88
-1 27 -45 146 -56 148 -5 1 -73 -23 -151 -54z m177 -67 c0 -89 -127 -82 -142
8 -2 14 10 24 52 42 55 23 55 23 73 3 9 -11 17 -35 17 -53z"/>
<path d="M3142 3127 c-6 -7 -15 -25 -21 -40 -6 -15 -18 -27 -26 -27 -9 0 -39
-12 -68 -27 -33 -17 -84 -31 -142 -39 -49 -6 -80 -12 -67 -13 12 -1 25 -8 28
-16 7 -18 61 -20 66 -3 3 7 14 9 31 4 25 -6 26 -8 15 -29 -12 -21 -14 -27 -17
-54 -2 -19 -19 -16 -24 5 -4 15 -5 15 -6 -2 -1 -12 -6 -16 -16 -12 -8 3 -15 3
-15 0 0 -10 28 -34 39 -34 6 0 10 -3 10 -7 -3 -20 2 -33 13 -33 6 0 8 3 5 7
-4 3 -1 13 6 21 8 11 8 14 0 9 -23 -14 -25 15 -2 39 12 13 19 24 16 24 -4 0
-2 10 6 23 7 12 13 31 12 42 -1 21 17 45 33 45 5 0 15 7 22 15 14 17 35 21 25
5 -3 -5 -1 -10 5 -10 7 0 10 7 6 15 -4 10 1 15 15 15 16 0 19 -4 14 -17 -4
-10 -10 -28 -12 -41 -3 -12 -9 -25 -14 -28 -5 -3 -9 -12 -9 -20 0 -12 6 -11
31 7 22 15 27 24 18 30 -10 6 -10 18 0 62 6 30 18 63 26 73 13 18 14 18 38 -4
35 -33 43 -70 20 -88 -10 -7 -13 -14 -8 -14 17 0 35 22 35 42 0 18 -56 88 -70
88 -4 0 -12 -6 -18 -13z m-167 -147 c3 -5 -1 -10 -10 -10 -9 0 -13 5 -10 10 3
6 8 10 10 10 2 0 7 -4 10 -10z m-88 -16 c-3 -3 -12 -4 -19 -1 -8 3 -5 6 6 6
11 1 17 -2 13 -5z"/>
<path d="M3432 3126 c7 -8 15 -12 17 -11 5 6 -10 25 -20 25 -5 0 -4 -6 3 -14z"/>
<path d="M3370 3107 c-18 -12 -52 -24 -75 -28 l-40 -8 42 2 c35 2 43 -1 45
-17 2 -11 8 -21 15 -23 7 -3 9 3 6 17 -4 15 3 30 23 51 32 34 31 35 -16 6z"/>
<path d="M3452 3080 c0 -14 2 -19 5 -12 2 6 2 18 0 25 -3 6 -5 1 -5 -13z"/>
<path d="M3395 3070 c-3 -5 -1 -10 4 -10 17 0 13 -28 -5 -38 -14 -8 -14 -10 0
-21 28 -23 37 1 27 72 -1 10 -19 9 -26 -3z"/>
<path d="M3153 3038 c1 -22 24 -55 31 -47 2 2 1 19 -1 37 -6 36 -33 45 -30 10z"/>
<path d="M2070 2989 c-14 -5 -63 -20 -110 -34 -124 -36 -149 -62 -204 -211
-25 -66 -67 -162 -94 -214 -54 -104 -108 -251 -99 -273 4 -11 16 -13 54 -7 79
13 98 28 100 79 1 31 -1 40 -8 30 -7 -11 -9 -10 -9 6 0 11 -5 27 -10 35 -7 11
-9 7 -7 -15 1 -16 6 -33 11 -36 10 -8 -7 -64 -20 -64 -5 0 -14 -4 -21 -8 -6
-4 -14 -3 -18 3 -4 6 -11 7 -17 4 -7 -4 -7 0 -1 12 5 11 8 30 7 44 -1 14 3 30
8 37 5 7 7 17 3 22 -3 6 -2 19 4 28 7 14 9 9 7 -19 -2 -21 1 -38 6 -38 6 0 7
11 4 26 -4 14 -3 23 1 21 4 -3 9 6 9 19 1 15 -2 21 -9 17 -6 -4 -1 7 11 24 12
17 22 36 22 43 0 6 5 8 10 5 6 -4 3 -17 -10 -35 -15 -21 -17 -31 -9 -36 8 -4
9 -3 5 4 -4 7 -3 12 3 12 5 0 13 10 17 23 7 21 8 28 12 72 2 17 4 16 17 -9 8
-15 13 -40 10 -55 l-5 -26 10 25 c8 17 8 32 1 47 -6 13 -7 23 -2 23 4 0 13 12
20 27 10 22 10 25 -2 15 -8 -7 -17 -9 -21 -5 -4 4 -5 1 -3 -7 2 -8 2 -12 0 -7
-3 4 -9 4 -15 1 -6 -4 -6 1 1 13 6 11 7 24 3 29 -4 5 1 2 11 -5 9 -7 18 -11
18 -7 3 14 7 26 9 29 3 3 9 45 13 93 4 39 22 84 33 84 3 0 2 -5 -2 -11 -3 -6
12 1 35 16 22 15 41 32 41 38 0 5 -7 4 -15 -3 -12 -10 -15 -10 -15 4 0 9 7 16
15 16 8 0 15 5 15 10 0 14 33 12 49 -2 11 -10 13 -10 7 0 -12 21 3 33 26 21
13 -7 18 -7 14 -1 -3 6 -2 13 4 17 5 3 10 2 10 -3 0 -5 15 -4 34 2 19 6 33 13
30 17 -5 8 32 19 64 19 12 0 22 -4 22 -9 0 -5 9 -11 20 -14 17 -4 18 -2 9 14
-9 18 -7 19 18 13 35 -9 42 -9 73 1 22 7 23 6 11 -9 -7 -9 -20 -16 -27 -16 -8
0 -14 -4 -14 -10 0 -11 51 9 61 24 4 5 34 7 68 4 33 -2 61 -2 61 2 0 9 83 0
108 -12 16 -9 19 -14 10 -20 -10 -6 -9 -8 3 -8 9 0 19 7 23 15 7 19 33 19 70
0 32 -17 70 -20 61 -5 -3 6 -16 10 -27 10 -36 0 -15 9 51 23 l63 12 -139 1
c-76 1 -232 4 -348 7 -120 3 -221 2 -235 -4z m-224 -144 c-10 -8 -23 -12 -28
-9 -14 9 -2 19 24 21 22 2 22 1 4 -12z"/>
<path d="M3272 2968 c-15 -15 -16 -58 -1 -58 6 0 8 7 5 16 -4 11 -2 15 8 11
11 -4 13 0 11 15 -6 27 -9 30 -23 16z"/>
<path d="M2758 2963 c6 -2 18 -2 25 0 6 3 1 5 -13 5 -14 0 -19 -2 -12 -5z"/>
<path d="M2338 2953 c12 -2 30 -2 40 0 9 3 -1 5 -23 4 -22 0 -30 -2 -17 -4z"/>
<path d="M2428 2943 c7 -3 16 -2 19 1 4 3 -2 6 -13 5 -11 0 -14 -3 -6 -6z"/>
<path d="M2480 2940 c8 -5 22 -9 30 -9 10 0 8 3 -5 9 -27 12 -43 12 -25 0z"/>
<path d="M2318 2933 c7 -3 16 -2 19 1 4 3 -2 6 -13 5 -11 0 -14 -3 -6 -6z"/>
<path d="M3147 2933 c-10 -10 -8 -23 4 -23 5 0 8 4 5 9 -4 5 0 12 6 14 7 3 8
6 2 6 -6 1 -14 -2 -17 -6z"/>
<path d="M2158 2923 c12 -2 32 -2 45 0 12 2 2 4 -23 4 -25 0 -35 -2 -22 -4z"/>
<path d="M2280 2920 c20 -13 33 -13 25 0 -3 6 -14 10 -23 10 -15 0 -15 -2 -2
-10z"/>
<path d="M3321 2914 c0 -11 3 -14 6 -6 3 7 2 16 -1 19 -3 4 -6 -2 -5 -13z"/>
<path d="M2047 2909 c7 -7 15 -10 18 -7 3 3 -2 9 -12 12 -14 6 -15 5 -6 -5z"/>
<path d="M2516 2907 c3 -10 9 -15 12 -12 3 3 0 11 -7 18 -10 9 -11 8 -5 -6z"/>
<path d="M2662 2893 c19 -20 20 -25 8 -33 -11 -7 -12 -10 -2 -10 7 0 11 -4 8
-9 -3 -5 4 -11 15 -14 12 -3 19 -10 16 -14 -3 -5 3 -10 14 -10 11 -1 17 2 14
8 -4 5 0 10 7 10 7 1 0 4 -16 8 -39 8 -46 31 -10 31 27 0 27 1 8 15 -10 8 -28
15 -39 15 -16 1 -14 3 9 13 l28 12 -42 1 -41 1 23 -24z"/>
<path d="M3033 2909 c-15 -15 -17 -33 -3 -24 14 9 13 5 -12 -46 -26 -54 -29
-86 -8 -85 9 1 15 -8 16 -24 1 -50 3 -53 19 -36 17 16 20 46 5 46 -5 0 -7 7
-3 16 5 14 7 14 17 -2 16 -29 16 -45 0 -62 -9 -8 -12 -18 -7 -21 14 -9 37 -71
29 -78 -3 -3 -6 1 -6 10 0 35 -16 23 -18 -13 -3 -47 -23 -88 -40 -82 -7 2 -17
-10 -24 -29 -11 -31 -12 -31 -26 -13 -14 18 -14 18 -7 -6 4 -14 7 -34 7 -45 1
-43 20 -172 33 -220 l14 -50 1 40 c1 30 3 35 9 20 8 -19 9 -19 16 5 5 14 8 37
6 52 -1 14 3 29 10 34 9 5 10 1 6 -16 -3 -13 -2 -19 3 -14 12 12 14 68 5 132
-5 36 -4 52 4 53 31 4 36 6 34 16 -1 6 5 10 14 9 8 -1 26 7 38 18 46 42 86 67
130 81 9 2 19 13 22 22 4 10 16 26 28 35 11 10 17 17 12 18 -4 0 0 14 8 30 9
17 20 28 25 25 6 -4 10 -8 10 -11 0 -3 -4 -3 -9 0 -10 6 -25 -24 -16 -32 9 -9
44 43 51 76 3 17 11 32 17 32 7 0 6 5 -2 13 -10 10 -20 4 -52 -31 -22 -23 -37
-47 -34 -52 11 -17 -7 -11 -21 8 -13 16 -13 16 -14 0 0 -20 -15 -24 -25 -8
-13 20 -27 -3 -21 -33 5 -22 3 -28 -4 -21 -6 6 -12 21 -13 33 -1 11 -5 21 -10
21 -4 0 -19 11 -31 25 -27 29 -116 77 -116 63 0 -6 11 -19 25 -30 24 -19 26
-38 3 -38 -5 0 -7 7 -4 15 4 11 0 15 -11 13 -10 -2 -18 2 -18 9 0 7 -6 18 -14
25 -12 11 -13 11 -6 -1 5 -9 4 -12 -3 -7 -6 3 -11 14 -11 24 -1 9 -4 41 -9 70
-6 43 -9 51 -19 41z m11 -104 c3 -8 2 -25 -3 -37 l-8 -21 -16 23 c-12 18 -14
27 -5 37 14 17 25 16 32 -2z m372 -62 c-2 -10 -11 -20 -22 -22 -19 -3 -19 -3
0 18 23 26 25 26 22 4z m-203 -87 c15 -24 27 -49 27 -57 0 -11 2 -11 10 1 5 8
10 11 10 5 -1 -5 -7 -19 -15 -29 -15 -20 -15 -20 -16 0 -1 19 -1 19 -6 0 -5
-19 -26 -46 -37 -46 -2 0 -6 10 -8 23 -2 12 -7 21 -13 19 -5 -2 -12 5 -16 15
-6 14 -8 12 -8 -9 -1 -16 4 -28 9 -28 6 0 5 -8 -2 -20 -12 -19 -13 -19 -25 3
-11 20 -12 19 -7 -13 l6 -35 -15 27 c-10 18 -12 36 -7 60 4 18 8 25 9 16 2
-25 17 -30 17 -5 0 12 -7 27 -15 34 -9 6 -13 15 -8 19 4 4 7 2 7 -4 0 -7 6
-12 14 -12 15 0 16 16 2 38 -4 7 -6 16 -3 19 11 10 28 -9 49 -54 19 -41 23
-44 34 -28 11 14 10 20 -2 33 -8 8 -13 20 -11 27 5 12 -32 41 -46 37 -5 -1 -6
2 -3 7 12 18 42 -1 69 -43z m-100 19 c-7 -21 -13 -19 -13 6 0 11 4 18 10 14 5
-3 7 -12 3 -20z m118 2 c-10 -9 -11 -8 -5 6 3 10 9 15 12 12 3 -3 0 -11 -7
-18z m70 -66 c7 11 9 11 9 -3 0 -9 -5 -20 -11 -24 -17 -10 -33 12 -24 33 8 17
8 17 13 -1 3 -15 6 -16 13 -5z m-204 -133 c-3 -8 -6 -5 -6 6 -1 11 2 17 5 13
3 -3 4 -12 1 -19z m-27 2 c13 -8 13 -10 -2 -10 -9 0 -18 -6 -21 -12 -3 -7 -4
-3 -4 10 1 24 5 26 27 12z m-40 -34 c0 -8 -7 -16 -15 -20 -9 -3 -15 0 -15 10
0 8 5 12 10 9 6 -3 10 -1 10 4 0 6 2 11 5 11 3 0 5 -6 5 -14z m17 -118 c-3 -7
-5 -2 -5 12 0 14 2 19 5 13 2 -7 2 -19 0 -25z m-30 -55 c-3 -10 -5 -4 -5 12 0
17 2 24 5 18 2 -7 2 -21 0 -30z"/>
<path d="M2126 2895 c4 -8 7 -15 9 -15 2 0 5 7 9 15 3 9 0 15 -9 15 -9 0 -12
-6 -9 -15z"/>
<path d="M2860 2900 c0 -5 7 -10 15 -10 8 0 15 5 15 10 0 6 -7 10 -15 10 -8 0
-15 -4 -15 -10z"/>
<path d="M3130 2890 c0 -5 -9 -10 -20 -10 -11 0 -20 -5 -20 -11 0 -5 -4 -7
-10 -4 -6 3 -7 -1 -4 -9 7 -17 34 -22 34 -7 0 5 19 12 42 16 33 6 44 4 54 -10
7 -10 18 -14 25 -9 8 4 10 3 5 -4 -5 -8 0 -12 12 -12 11 0 22 7 25 14 4 10 1
13 -9 9 -7 -3 -14 0 -14 6 0 6 -11 11 -24 11 -13 0 -26 7 -30 15 -6 17 -66 21
-66 5z"/>
<path d="M3378 2893 c7 -3 16 -2 19 1 4 3 -2 6 -13 5 -11 0 -14 -3 -6 -6z"/>
<path d="M3413 2889 c-6 -6 -19 -12 -29 -13 -10 -2 -24 -13 -32 -25 -14 -20
-13 -21 4 -15 11 4 24 13 31 22 13 16 83 9 83 -8 0 -6 5 -10 10 -10 25 0 -4
44 -36 54 -11 3 -25 1 -31 -5z"/>
<path d="M970 2874 c-11 -12 -10 -18 3 -32 16 -15 18 -15 34 0 13 14 14 20 3
32 -7 9 -16 16 -20 16 -4 0 -13 -7 -20 -16z"/>
<path d="M1944 2865 c-10 -14 -25 -23 -32 -20 -7 3 -10 0 -7 -6 4 -5 1 -16 -5
-25 -7 -8 -14 -44 -16 -81 -3 -37 -7 -69 -9 -72 -3 -2 -5 3 -5 13 0 9 -4 14
-10 11 -5 -3 -10 2 -10 11 0 10 -2 15 -5 12 -3 -3 -1 -23 4 -44 5 -21 9 -33
10 -25 1 20 30 -18 31 -39 0 -13 -1 -13 -10 0 -8 13 -10 12 -10 -3 0 -10 -7
-25 -15 -33 -11 -11 -13 -26 -9 -55 6 -34 4 -38 -10 -33 -13 5 -16 0 -16 -26
0 -18 -4 -29 -10 -25 -6 3 -10 -4 -10 -17 0 -16 -3 -19 -9 -10 -7 11 -9 11
-14 -2 -4 -9 -3 -23 0 -33 4 -10 2 -14 -4 -10 -6 4 -13 0 -17 -8 -3 -8 -12
-15 -21 -15 -8 0 -15 -5 -15 -11 0 -5 6 -7 13 -3 9 6 9 5 0 -8 -7 -8 -10 -17
-7 -21 6 -5 42 22 96 75 15 14 28 23 28 19 0 -21 -64 -100 -104 -128 -45 -32
-46 -34 -46 -85 0 -28 7 -80 16 -115 18 -73 14 -94 -15 -86 -11 3 -29 2 -38
-2 -15 -5 -11 -10 21 -26 49 -23 81 -26 52 -4 -16 12 -17 18 -8 27 9 9 12 9
12 -3 0 -25 34 -49 66 -48 18 1 22 3 11 6 -10 3 -16 11 -13 18 3 8 -2 11 -14
8 -24 -6 -41 26 -43 82 -1 24 -5 41 -9 38 -12 -6 -10 16 4 54 7 18 18 33 25
33 7 0 21 13 31 30 15 24 21 27 31 17 11 -10 11 -8 3 9 -10 19 -9 21 16 20 30
-1 47 -17 30 -28 -7 -3 -18 1 -25 10 -13 15 -13 14 -4 -5 12 -23 0 -40 -19
-28 -6 4 -7 -1 -3 -11 4 -11 3 -15 -4 -11 -6 4 -21 -5 -32 -19 -12 -15 -21
-21 -21 -14 0 7 -3 10 -7 7 -4 -4 3 -21 15 -37 12 -16 22 -35 22 -43 0 -7 7
-22 15 -33 10 -13 8 -2 -5 36 -22 59 -26 84 -10 60 8 -13 10 -13 10 2 0 10 27
39 59 65 51 41 58 50 51 69 -6 16 -5 26 6 34 7 7 14 24 15 39 0 15 3 20 6 11
3 -8 13 -24 22 -35 15 -18 15 -19 0 -7 -14 10 -18 10 -23 -3 -4 -10 -2 -14 5
-9 7 4 10 1 7 -7 -3 -8 -11 -13 -17 -11 -6 1 -11 -5 -11 -13 0 -20 6 -19 41 6
16 11 26 25 23 31 -4 6 -2 8 3 5 17 -11 63 31 57 51 -5 14 -4 14 4 2 23 -36
24 -81 1 -151 l-23 -69 24 -43 c13 -23 36 -60 51 -81 16 -21 26 -44 22 -49 -3
-6 -1 -7 4 -4 11 7 50 -29 41 -38 -8 -8 -58 19 -58 31 0 6 -6 17 -14 23 -11 9
-10 4 2 -23 15 -33 51 -54 71 -41 5 2 14 -2 21 -10 9 -11 31 -15 79 -13 41 1
51 3 26 5 -77 6 -106 14 -99 25 4 7 3 8 -4 4 -11 -7 -17 11 -13 40 1 7 -7 11
-16 10 -10 0 -17 5 -16 12 2 6 -1 12 -7 12 -5 0 -7 6 -4 13 2 7 -4 24 -16 37
-18 21 -20 21 -20 4 -1 -10 -14 10 -30 45 -28 59 -29 66 -16 95 8 17 17 38 19
46 3 8 6 3 6 -11 1 -15 8 -30 17 -33 12 -5 15 -14 10 -37 -3 -18 -2 -28 4 -24
6 3 10 21 10 38 0 24 3 28 10 17 14 -22 12 -8 -4 32 -9 21 -12 50 -9 76 4 26
2 42 -5 42 -6 0 -13 6 -15 13 -2 6 -3 1 -2 -13 1 -14 -1 -36 -5 -50 -6 -17 -9
-2 -10 50 -1 46 -4 67 -9 56 -7 -18 -8 -18 -14 -2 -4 10 -4 22 -1 28 4 6 0 14
-7 19 -12 7 -12 12 0 31 13 21 13 22 -2 9 -14 -11 -17 -11 -17 0 -1 9 -5 8
-15 -5 -14 -19 -15 -18 -15 10 0 23 -2 26 -11 14 -8 -12 -9 -9 -5 12 5 22 3
25 -14 21 -22 -6 -26 8 -9 39 6 11 8 22 5 25 -3 3 -9 -4 -14 -17 -8 -22 -9
-21 -30 14 -12 21 -22 43 -22 49 1 7 9 -4 20 -23 15 -28 20 -32 25 -18 4 9 1
26 -5 37 -6 12 -8 26 -4 32 4 7 -2 6 -16 -1 l-23 -12 22 36 c17 27 19 37 9 40
-43 14 -44 14 -28 15 17 1 46 41 30 41 -6 0 -13 -7 -16 -15 -6 -13 -34 -22
-34 -10 0 13 33 85 39 85 4 0 17 14 29 30 13 17 19 30 14 30 -5 0 -18 -11 -28
-25z m-28 -190 c-9 -9 -16 -13 -16 -8 0 12 22 34 28 28 2 -2 -3 -11 -12 -20z
m-45 -222 c-12 -20 -14 -14 -5 12 4 9 9 14 11 11 3 -2 0 -13 -6 -23z m178 -51
c1 -7 -3 -10 -9 -7 -5 3 -10 18 -9 33 0 24 1 25 9 7 5 -11 9 -26 9 -33z m-212
6 c-3 -8 -6 -5 -6 6 -1 11 2 17 5 13 3 -3 4 -12 1 -19z m63 -49 c0 8 2 12 5 9
3 -3 2 -14 -2 -25 -7 -19 -10 -17 -26 16 l-18 36 20 -25 c13 -15 21 -20 21
-11z m136 9 c4 -6 3 -8 -3 -5 -12 8 -27 -38 -18 -53 4 -6 2 -10 -2 -10 -5 0
-14 12 -20 28 l-12 27 5 -30 c4 -23 3 -27 -5 -15 -13 19 -14 50 -2 50 6 0 13
-5 17 -12 5 -7 10 -4 15 10 9 25 15 27 25 10z m-163 -112 c-8 -29 -9 -29 -15
-8 -3 12 -2 20 3 16 5 -3 9 5 8 18 0 13 -3 17 -6 10 -5 -13 -23 -7 -23 9 0 6
5 7 11 3 8 -4 9 1 5 17 -6 20 -4 19 10 -5 12 -22 14 -36 7 -60z m164 62 c-3
-8 -6 -5 -6 6 -1 11 2 17 5 13 3 -3 4 -12 1 -19z m-218 -49 c-6 -19 -18 -39
-25 -45 -8 -6 -10 -15 -6 -19 4 -5 1 -4 -7 0 -11 6 -13 4 -8 -8 3 -10 2 -17
-3 -17 -18 0 -10 29 11 44 15 10 20 21 16 35 -3 12 -1 19 3 16 5 -3 12 4 15
16 4 11 9 19 11 16 2 -2 -1 -19 -7 -38z m101 20 c0 -6 -5 -7 -11 -3 -9 5 -10
-3 -5 -29 7 -36 -7 -60 -18 -30 -8 20 13 85 25 78 5 -4 9 -11 9 -16z m-176
-66 c-13 -14 -27 -23 -31 -19 -4 4 3 16 17 26 36 28 43 24 14 -7z m-1 -43 c-5
-19 -23 -29 -23 -12 0 7 20 32 26 32 1 0 0 -9 -3 -20z m-16 -62 c-3 -8 -6 -5
-6 6 -1 11 2 17 5 13 3 -3 4 -12 1 -19z m409 -125 c-7 -7 -26 7 -26 19 0 6 6
6 15 -2 9 -7 13 -15 11 -17z"/>
<path d="M3321 2874 c0 -11 3 -14 6 -6 3 7 2 16 -1 19 -3 4 -6 -2 -5 -13z"/>
<path d="M1990 2870 c0 -5 5 -10 10 -10 6 0 10 5 10 10 0 6 -4 10 -10 10 -5 0
-10 -4 -10 -10z"/>
<path d="M2555 2860 c-4 -6 6 -10 22 -10 22 0 25 2 13 10 -19 12 -27 12 -35 0z"/>
<path d="M2086 2843 c-6 -14 -5 -15 5 -6 7 7 10 15 7 18 -3 3 -9 -2 -12 -12z"/>
<path d="M2971 2832 c-7 -13 -6 -19 2 -19 7 0 13 9 13 19 0 10 -1 18 -3 18 -1
0 -7 -8 -12 -18z"/>
<path d="M3170 2841 c0 -10 19 -25 25 -20 1 2 -3 10 -11 17 -8 7 -14 8 -14 3z"/>
<path d="M2010 2820 c-8 -5 -10 -10 -5 -10 6 0 17 5 25 10 8 5 11 10 5 10 -5
0 -17 -5 -25 -10z"/>
<path d="M3477 2823 c-4 -3 -7 -13 -7 -22 1 -13 3 -13 11 2 11 19 8 33 -4 20z"/>
<path d="M1944 2798 l-19 -23 25 20 c14 11 27 21 29 22 2 2 0 3 -6 3 -5 0 -18
-10 -29 -22z"/>
<path d="M2290 2805 c-7 -8 -9 -19 -5 -25 3 -5 1 -10 -4 -10 -6 0 -11 -5 -11
-12 0 -9 3 -9 12 0 9 9 16 3 30 -26 17 -37 18 -36 22 19 1 9 7 23 15 32 17 22
7 22 -14 1 -10 -10 -13 -24 -10 -38 4 -13 -1 -8 -14 12 -21 33 -20 52 2 52 8
0 7 -3 -2 -9 -7 -5 -10 -14 -6 -20 5 -9 11 -7 21 6 7 10 14 20 14 23 0 12 -39
8 -50 -5z"/>
<path d="M2638 2813 c7 -3 16 -2 19 1 4 3 -2 6 -13 5 -11 0 -14 -3 -6 -6z"/>
<path d="M2720 2791 l-34 -6 29 -14 c17 -7 25 -16 18 -18 -9 -3 -7 -11 7 -25
10 -11 16 -27 13 -37 -4 -9 -3 -13 1 -9 4 3 8 12 10 20 1 7 5 18 9 24 3 6 -2
19 -13 29 -19 17 -19 19 -2 31 18 14 16 15 -38 5z"/>
<path d="M2875 2790 c-3 -5 -1 -10 4 -10 6 0 11 5 11 10 0 6 -2 10 -4 10 -3 0
-8 -4 -11 -10z"/>
<path d="M1803 2773 c-3 -10 -7 -21 -9 -24 -2 -3 3 -6 11 -6 8 0 13 2 10 5 -2
3 0 13 6 23 7 13 6 19 -1 19 -6 0 -13 -8 -17 -17z"/>
<path d="M1970 2779 c0 -5 5 -7 10 -4 6 3 10 8 10 11 0 2 -4 4 -10 4 -5 0 -10
-5 -10 -11z"/>
<path d="M2186 2781 c-3 -4 6 -6 19 -3 14 2 25 6 25 8 0 8 -39 4 -44 -5z"/>
<path d="M2776 2772 c-2 -4 -1 -14 4 -22 5 -9 5 -19 -2 -27 -7 -9 -7 -13 0
-13 11 0 25 18 28 35 2 14 -24 37 -30 27z"/>
<path d="M4131 2748 c-52 -25 -81 -79 -80 -148 1 -55 20 -122 36 -127 9 -3 9
5 -2 31 -22 52 -19 118 6 150 40 51 113 74 179 56 74 -20 107 -78 90 -157 -7
-29 -5 -33 12 -33 19 0 20 5 15 60 -13 149 -134 229 -256 168z"/>
<path d="M2008 2753 c7 -3 16 -2 19 1 4 3 -2 6 -13 5 -11 0 -14 -3 -6 -6z"/>
<path d="M797 2705 c-87 -24 -163 -45 -169 -47 -10 -4 208 -148 280 -187 41
-22 25 12 -17 36 -38 22 -39 25 -34 60 16 107 15 107 66 121 40 11 47 17 47
38 0 13 -3 24 -7 23 -5 0 -79 -20 -166 -44z m52 -57 c0 -13 -4 -42 -7 -65 l-7
-43 -74 44 -74 44 39 11 c21 5 55 14 74 19 50 14 50 14 49 -10z"/>
<path d="M2184 2739 c-4 -7 -1 -10 7 -7 8 3 20 -1 27 -9 7 -7 19 -13 25 -13 8
0 7 3 -2 9 -7 5 -10 14 -7 20 5 7 -2 11 -18 11 -14 0 -28 -5 -32 -11z"/>
<path d="M2835 2710 c-3 -6 1 -7 9 -4 18 7 21 14 7 14 -6 0 -13 -4 -16 -10z"/>
<path d="M2910 2716 c0 -2 7 -7 16 -10 8 -3 12 -2 9 4 -6 10 -25 14 -25 6z"/>
<path d="M2284 2699 c-4 -7 -3 -9 4 -5 6 3 13 -2 15 -11 4 -16 5 -16 6 -1 1
21 -15 32 -25 17z"/>
<path d="M2569 2683 c-13 -16 -12 -17 4 -4 16 13 21 21 13 21 -2 0 -10 -8 -17
-17z"/>
<path d="M2780 2689 c0 -5 5 -7 10 -4 6 3 10 8 10 11 0 2 -4 4 -10 4 -5 0 -10
-5 -10 -11z"/>
<path d="M1793 2672 c-9 -16 -7 -26 12 -58 l24 -39 -1 40 c0 30 -2 34 -6 15
-5 -21 -7 -17 -12 18 -4 38 -6 40 -17 24z"/>
<path d="M1968 2673 c10 -4 10 -8 1 -19 -8 -10 -7 -17 5 -29 9 -9 16 -31 17
-48 0 -30 1 -31 10 -8 6 16 6 28 -2 37 -6 7 -9 19 -6 26 6 17 -11 48 -26 47
-9 0 -8 -2 1 -6z"/>
<path d="M2245 2670 c-3 -5 -1 -10 4 -10 6 0 11 5 11 10 0 6 -2 10 -4 10 -3 0
-8 -4 -11 -10z"/>
<path d="M2266 2652 c-3 -6 1 -15 8 -21 8 -7 17 -8 20 -3 3 6 -1 15 -8 21 -8
7 -17 8 -20 3z"/>
<path d="M2316 2651 c-4 -7 -5 -15 -2 -18 9 -9 19 4 14 18 -4 11 -6 11 -12 0z"/>
<path d="M2382 2623 c1 -15 -2 -53 -6 -83 -5 -41 -4 -49 4 -32 5 13 8 28 4 33
-3 5 0 9 5 9 14 0 15 87 1 95 -5 3 -9 -7 -8 -22z"/>
<path d="M2414 2563 c1 -46 4 -83 9 -83 9 0 8 107 -2 140 -5 15 -7 -7 -7 -57z"/>
<path d="M2565 2621 c-3 -5 -2 -12 3 -15 5 -3 9 1 9 9 0 17 -3 19 -12 6z"/>
<path d="M2736 2604 c3 -35 12 -41 12 -9 0 14 -4 27 -8 30 -4 2 -6 -7 -4 -21z"/>
<path d="M2796 2589 c-10 -22 -22 -56 -28 -75 -7 -27 -12 -33 -22 -25 -15 13
-36 -4 -36 -28 1 -10 5 -7 14 8 18 32 27 7 12 -32 -9 -24 -8 -31 7 -42 11 -8
25 -11 32 -9 8 4 19 -12 30 -45 18 -55 30 -66 30 -27 0 13 -3 22 -7 20 -3 -2
-12 12 -19 33 -6 20 -20 46 -30 57 -25 26 -24 35 4 28 20 -5 21 -4 8 12 -13
16 -12 17 15 11 23 -4 25 -3 9 4 -20 8 -27 44 -13 67 8 12 21 84 16 84 -2 0
-12 -18 -22 -41z"/>
<path d="M2298 2610 c-3 -8 -1 -23 4 -34 6 -10 7 -46 4 -80 -4 -36 -3 -56 2
-48 8 11 15 11 43 -1 19 -8 38 -14 42 -15 4 0 19 -7 31 -16 24 -15 24 -15 13
14 -8 22 -14 27 -24 18 -8 -6 -13 -6 -13 -1 0 5 -11 15 -25 21 -14 6 -25 19
-25 29 0 15 -2 15 -15 -3 -13 -18 -14 -15 -16 31 -1 61 -13 107 -21 85z"/>
<path d="M2331 2604 c0 -11 3 -14 6 -6 3 7 2 16 -1 19 -3 4 -6 -2 -5 -13z"/>
<path d="M3036 2597 c3 -10 9 -15 12 -12 3 3 0 11 -7 18 -10 9 -11 8 -5 -6z"/>
<path d="M2185 2553 c7 -24 12 -51 10 -61 -1 -9 0 -11 2 -3 4 11 7 11 13 2 5
-9 9 -8 13 4 4 9 3 13 -2 10 -12 -7 -24 31 -15 46 5 8 3 9 -6 4 -10 -6 -12 -2
-8 17 3 15 0 25 -8 25 -9 0 -9 -10 1 -44z"/>
<path d="M2022 2578 c-15 -15 -15 -35 -1 -44 8 -4 9 1 4 16 -4 13 -3 20 2 17
5 -4 10 0 10 8 0 18 0 18 -15 3z"/>
<path d="M1768 2569 c-4 -9 -2 -21 4 -27 7 -7 6 -17 -1 -31 -10 -17 -9 -20 4
-15 8 4 15 14 15 24 0 10 3 27 6 37 5 14 4 15 -4 4 -8 -11 -11 -10 -14 5 -3
16 -4 17 -10 3z"/>
<path d="M2640 2565 c-7 -9 -10 -18 -7 -21 3 -3 10 4 17 15 13 25 8 27 -10 6z"/>
<path d="M2707 2574 c-4 -4 -7 -17 -7 -28 1 -19 1 -20 11 -3 11 19 8 43 -4 31z"/>
<path d="M2059 2550 c-9 -10 -14 -22 -10 -28 9 -16 26 -1 28 26 3 26 3 26 -18
2z"/>
<path d="M2836 2562 c-4 -7 -5 -16 -1 -21 3 -5 -2 -17 -11 -26 -9 -9 -14 -18
-11 -21 2 -3 20 14 38 38 19 24 26 37 17 30 -13 -10 -17 -10 -20 0 -3 9 -6 9
-12 0z"/>
<path d="M2501 2524 c0 -11 3 -14 6 -6 3 7 2 16 -1 19 -3 4 -6 -2 -5 -13z"/>
<path d="M2124 2499 c-8 -14 14 -19 25 -6 8 10 7 14 -5 14 -8 0 -17 -4 -20 -8z"/>
<path d="M1802 2475 c0 -16 2 -22 5 -12 2 9 2 23 0 30 -3 6 -5 -1 -5 -18z"/>
<path d="M2582 2470 c0 -19 2 -27 5 -17 2 9 2 25 0 35 -3 9 -5 1 -5 -18z"/>
<path d="M2083 2474 c3 -4 2 -14 -3 -24 -6 -12 -5 -17 6 -17 8 0 14 10 14 24
0 13 -5 23 -12 23 -6 0 -8 -3 -5 -6z"/>
<path d="M2453 2440 c1 -14 6 -23 11 -22 5 2 12 0 15 -5 12 -17 91 -42 97 -31
4 7 2 8 -4 4 -7 -4 -12 -2 -12 5 0 7 -3 9 -6 6 -11 -11 -44 13 -44 31 0 13 -2
14 -9 3 -7 -11 -11 -10 -20 5 -10 18 -10 18 -12 -1 -1 -17 -2 -16 -10 5 l-8
25 2 -25z"/>
<path d="M2521 2434 c0 -11 3 -14 6 -6 3 7 2 16 -1 19 -3 4 -6 -2 -5 -13z"/>
<path d="M2615 2430 c3 -5 8 -10 11 -10 2 0 4 5 4 10 0 6 -5 10 -11 10 -5 0
-7 -4 -4 -10z"/>
<path d="M2711 2421 c-1 -7 -11 -22 -23 -32 -11 -11 -17 -19 -11 -19 16 0 45
38 40 52 -4 10 -6 10 -6 -1z"/>
<path d="M2605 2399 c-9 -14 -5 -17 28 -23 31 -5 33 -3 11 18 -18 19 -30 20
-39 5z"/>
<path d="M2100 2390 c0 -5 5 -10 10 -10 6 0 10 5 10 10 0 6 -4 10 -10 10 -5 0
-10 -4 -10 -10z"/>
<path d="M1740 2363 c0 -22 2 -25 10 -13 13 20 13 40 0 40 -5 0 -10 -12 -10
-27z"/>
<path d="M2131 2344 c0 -11 3 -14 6 -6 3 7 2 16 -1 19 -3 4 -6 -2 -5 -13z"/>
<path d="M1634 2329 c-4 -6 9 -19 31 -31 6 -4 11 4 11 17 1 18 -3 23 -18 22
-11 -1 -21 -4 -24 -8z"/>
<path d="M2145 2289 c-4 -6 -5 -12 -2 -15 2 -3 7 2 10 11 7 17 1 20 -8 4z"/>
<path d="M2837 2259 c6 -23 9 -24 16 -5 3 8 0 17 -7 19 -10 4 -12 -1 -9 -14z"/>
<path d="M4140 2249 c6 -19 15 -63 20 -99 5 -36 12 -83 15 -105 4 -29 3 -35
-4 -20 -8 16 -10 13 -11 -20 0 -39 -1 -38 -45 54 -25 51 -45 108 -45 125 0 24
-3 27 -10 16 -5 -8 -9 -37 -9 -65 1 -40 3 -44 8 -20 6 28 8 26 39 -42 63 -138
65 -193 2 -65 -21 42 -39 74 -39 70 -1 -3 15 -39 34 -79 39 -83 43 -112 18
-165 -17 -35 -18 -35 -24 -13 -6 22 -7 22 -9 -6 -1 -16 -5 -39 -10 -50 -11
-25 -13 106 -3 156 5 28 7 30 14 14 4 -11 8 -35 8 -54 1 -19 4 -32 7 -28 9 8
-6 127 -16 127 -15 0 -30 -89 -30 -177 l0 -89 -45 -44 -44 -43 29 77 c15 42
34 83 40 91 24 29 -10 16 -46 -18 -28 -26 -43 -52 -63 -118 -24 -73 -32 -87
-64 -108 -20 -13 -35 -27 -32 -30 3 -2 11 1 17 7 7 7 37 12 68 13 30 0 64 4
75 9 12 5 -3 6 -40 3 l-60 -5 25 18 c14 10 48 27 75 36 28 10 41 17 31 18 -13
0 2 13 39 36 74 44 142 99 156 126 9 17 -2 14 -65 -20 -42 -23 -76 -37 -76
-32 0 5 14 16 30 25 17 9 52 44 80 79 27 35 68 75 91 90 22 15 39 30 36 32 -8
9 -109 -35 -133 -57 -33 -31 -33 -1 0 38 37 45 46 68 51 135 l4 63 -10 -64
c-5 -35 -16 -76 -25 -92 -16 -32 -30 -40 -19 -11 3 9 11 54 16 99 5 45 15 95
22 110 l12 27 6 -34 6 -35 2 37 c0 20 6 40 11 43 13 8 13 25 0 25 -13 0 -60
-83 -60 -108 0 -11 -4 -24 -10 -27 -6 -4 -10 8 -10 30 0 42 -19 126 -31 139
-5 5 -4 -6 1 -25z m44 -398 c-81 -97 -106 -112 -67 -39 25 47 100 118 124 118
5 0 -21 -36 -57 -79z m-200 -135 c-23 -64 -61 -132 -70 -124 -9 10 40 141 63
168 14 17 27 29 29 28 2 -2 -8 -35 -22 -72z m170 22 c-22 -24 -132 -98 -147
-98 -18 0 25 40 86 81 66 43 90 50 61 17z"/>
<path d="M836 2228 c-3 -13 -5 -34 -5 -48 1 -15 5 -7 10 19 9 47 6 68 -5 29z"/>
<path d="M2220 2220 c-6 -11 -8 -20 -6 -20 3 0 10 9 16 20 6 11 8 20 6 20 -3
0 -10 -9 -16 -20z"/>
<path d="M2856 2231 c-4 -5 -2 -12 3 -15 5 -4 12 -2 15 3 4 5 2 12 -3 15 -5 4
-12 2 -15 -3z"/>
<path d="M735 2197 c8 -13 20 -44 25 -68 l9 -44 -3 44 c-5 50 7 44 28 -14 8
-22 15 -34 15 -26 2 26 -40 99 -65 116 l-25 16 16 -24z"/>
<path d="M923 2163 c0 -16 -14 -66 -32 -112 -18 -45 -30 -88 -27 -94 3 -8 5
-8 5 1 1 7 15 50 33 95 30 78 33 80 40 52 5 -23 6 -18 4 18 -4 54 -23 86 -23
40z"/>
<path d="M2872 2179 c30 -76 41 -99 44 -96 3 2 -3 20 -11 40 -8 20 -14 42 -13
48 2 6 -3 14 -11 17 -9 3 -12 0 -9 -9z"/>
<path d="M3032 2160 c0 -14 2 -19 5 -12 2 6 2 18 0 25 -3 6 -5 1 -5 -13z"/>
<path d="M2080 2149 c0 -11 4 -18 10 -14 5 3 7 12 3 20 -7 21 -13 19 -13 -6z"/>
<path d="M3086 2155 c-3 -8 -1 -17 3 -20 5 -3 11 2 15 10 3 8 1 17 -3 20 -5 3
-11 -2 -15 -10z"/>
<path d="M2191 2144 c0 -11 3 -14 6 -6 3 7 2 16 -1 19 -3 4 -6 -2 -5 -13z"/>
<path d="M821 2129 c0 -14 -3 -48 -6 -75 -4 -38 -3 -44 5 -29 8 16 9 12 5 -17
-3 -21 -1 -47 5 -58 6 -11 8 -20 6 -20 -12 0 -40 55 -53 103 -13 51 -13 51 -8
9 7 -52 36 -113 63 -129 11 -6 22 -20 24 -31 5 -17 1 -17 -51 9 -31 15 -72 30
-91 34 -34 7 -34 6 18 -29 29 -20 75 -60 102 -89 27 -30 63 -60 79 -67 16 -6
32 -18 35 -25 3 -8 -27 2 -71 22 -41 19 -77 32 -80 30 -8 -9 108 -95 171 -126
l61 -31 -55 -1 -55 -2 65 -7 c62 -7 138 -31 150 -49 3 -4 19 -11 35 -15 l30
-7 -35 24 c-27 19 -41 41 -63 98 -30 81 -38 94 -81 127 -37 29 -52 28 -33 -1
8 -13 29 -54 46 -90 33 -73 24 -78 -34 -17 -27 29 -30 39 -36 123 -4 61 -13
107 -27 137 l-20 45 -1 -35 c0 -23 2 -30 8 -22 12 19 31 -63 31 -130 -1 -67
-16 -46 -30 39 l-9 58 3 -52 c2 -29 2 -53 0 -53 -9 0 -44 81 -44 100 0 12 14
56 30 97 17 42 29 80 28 84 -2 5 -16 -27 -33 -71 -16 -44 -33 -80 -36 -80 -11
0 -29 81 -38 165 -5 44 -9 68 -10 54z m-21 -239 c27 0 131 -122 117 -136 -3
-3 -40 30 -84 72 -43 43 -70 75 -60 71 10 -4 23 -7 27 -7z m243 -138 c21 -22
77 -138 77 -160 0 -3 -10 3 -21 14 -22 19 -101 174 -89 174 3 0 18 -13 33 -28z
m-123 -43 c32 -17 69 -42 82 -56 23 -25 22 -25 -37 5 -59 30 -128 81 -111 82
4 0 34 -14 66 -31z m147 -105 c-3 -3 -12 -4 -19 -1 -8 3 -5 6 6 6 11 1 17 -2
13 -5z"/>
<path d="M3051 2089 c-13 -11 -22 -22 -19 -24 2 -3 15 6 28 20 28 30 24 32 -9
4z"/>
<path d="M2181 2084 c0 -11 3 -14 6 -6 3 7 2 16 -1 19 -3 4 -6 -2 -5 -13z"/>
<path d="M2865 2048 c-23 -27 -25 -32 -10 -40 8 -5 34 -8 57 -6 l42 3 14 -50
c16 -55 37 -85 60 -85 13 0 12 3 -4 16 -18 14 -18 15 6 9 21 -5 22 -4 7 5 -9
6 -21 9 -26 5 -6 -3 -20 26 -32 65 -13 39 -29 70 -36 70 -7 0 -13 7 -13 15 0
8 -4 15 -8 15 -5 0 -7 -13 -6 -28 1 -21 -3 -28 -18 -29 -20 -2 -20 -1 -2 12
16 12 17 16 5 24 -7 5 -10 14 -7 20 14 22 -3 10 -29 -21z m30 -8 c3 -5 2 -10
-4 -10 -5 0 -13 5 -16 10 -3 6 -2 10 4 10 5 0 13 -4 16 -10z"/>
<path d="M2200 2034 c0 -5 20 -29 44 -53 37 -37 49 -43 71 -37 16 4 24 3 21
-2 -3 -6 1 -15 10 -22 8 -7 13 -19 10 -27 -7 -18 9 -17 24 3 8 8 9 14 4 12 -5
-2 -9 0 -9 3 0 19 -41 47 -75 53 -28 4 -47 16 -69 43 -17 21 -31 33 -31 27z"/>
<path d="M1543 2014 c10 -10 127 -12 127 -3 0 5 -30 9 -67 9 -36 0 -64 -3 -60
-6z"/>
<path d="M1620 1989 c0 -5 19 -9 42 -9 23 0 39 3 36 6 -10 9 -78 12 -78 3z"/>
<path d="M1837 1989 c-9 -5 -22 -7 -27 -4 -6 3 -10 1 -10 -5 0 -6 14 -8 39 -4
24 4 41 2 45 -5 4 -6 11 -9 16 -6 5 3 8 -4 7 -15 -1 -12 -8 -20 -19 -20 -11 0
-15 5 -12 14 3 8 -3 16 -16 19 -17 4 -19 3 -9 -9 6 -7 8 -21 5 -30 -5 -13 -2
-15 16 -10 13 3 28 6 34 6 23 0 25 33 3 57 -24 25 -44 28 -72 12z"/>
<path d="M2843 1983 c9 -2 25 -2 35 0 9 3 1 5 -18 5 -19 0 -27 -2 -17 -5z"/>
<path d="M2473 1973 c9 -2 23 -2 30 0 6 3 -1 5 -18 5 -16 0 -22 -2 -12 -5z"/>
<path d="M2660 1970 c-20 -5 -15 -8 25 -12 60 -5 66 -4 28 9 -15 5 -39 7 -53
3z"/>
<path d="M2731 1976 c2 -2 27 -6 54 -10 36 -5 46 -4 35 3 -13 10 -99 16 -89 7z"/>
<path d="M3168 1973 c6 -2 18 -2 25 0 6 3 1 5 -13 5 -14 0 -19 -2 -12 -5z"/>
<path d="M3243 1973 c9 -2 23 -2 30 0 6 3 -1 5 -18 5 -16 0 -22 -2 -12 -5z"/>
<path d="M2043 1953 c9 -2 23 -2 30 0 6 3 -1 5 -18 5 -16 0 -22 -2 -12 -5z"/>
<path d="M3090 1950 c-13 -9 -13 -10 0 -11 8 0 23 -2 33 -4 15 -3 16 -1 6 11
-13 16 -19 17 -39 4z"/>
<path d="M2563 1943 c9 -2 23 -2 30 0 6 3 -1 5 -18 5 -16 0 -22 -2 -12 -5z"/>
<path d="M2835 1940 c17 -4 24 -8 16 -9 -29 -2 -1 -13 53 -20 43 -6 56 -5 56
5 0 22 -36 34 -97 33 -47 -1 -53 -3 -28 -9z"/>
<path d="M2050 1936 c0 -2 9 -6 20 -9 11 -3 20 -1 20 4 0 5 -9 9 -20 9 -11 0
-20 -2 -20 -4z"/>
<path d="M2259 1929 c13 -5 30 -17 37 -27 8 -9 14 -12 14 -5 0 15 -39 43 -60
42 -8 0 -4 -5 9 -10z"/>
<path d="M2236 1899 c3 -5 12 -9 21 -9 19 0 9 13 -12 16 -8 1 -13 -2 -9 -7z"/>
<path d="M3078 1903 c7 -3 16 -2 19 1 4 3 -2 6 -13 5 -11 0 -14 -3 -6 -6z"/>
<path d="M3146 1893 c-6 -14 -5 -15 5 -6 7 7 10 15 7 18 -3 3 -9 -2 -12 -12z"/>
<path d="M3083 1873 c9 -2 23 -2 30 0 6 3 -1 5 -18 5 -16 0 -22 -2 -12 -5z"/>
<path d="M4103 1609 c14 -8 22 -8 30 0 8 8 3 11 -18 11 -26 -1 -28 -2 -12 -11z"/>
<path d="M896 1591 c10 -10 102 -41 118 -41 13 1 -103 50 -118 50 -6 0 -6 -3
0 -9z"/>
<path d="M4045 1580 c-22 -11 -29 -17 -15 -14 29 8 80 33 65 33 -5 0 -28 -8
-50 -19z"/>
<path d="M1038 1543 c6 -2 18 -2 25 0 6 3 1 5 -13 5 -14 0 -19 -2 -12 -5z"/>
<path d="M1093 1533 c9 -2 23 -2 30 0 6 3 -1 5 -18 5 -16 0 -22 -2 -12 -5z"/>
<path d="M1381 1359 c-13 -32 -22 -62 -19 -65 4 -3 24 4 47 15 22 12 42 21 45
21 3 0 -4 -19 -14 -42 -10 -24 -15 -47 -11 -51 5 -5 32 6 60 23 58 36 63 55 5
21 -20 -12 -39 -19 -42 -17 -3 3 3 24 13 46 10 22 15 43 12 46 -3 4 -26 -5
-51 -19 -26 -14 -46 -24 -46 -22 0 2 9 24 20 49 10 25 16 47 12 50 -5 3 -19
-22 -31 -55z"/>
<path d="M3595 1383 c7 -46 3 -49 -39 -33 -14 5 -28 5 -30 1 -3 -5 14 -14 39
-21 25 -7 50 -19 56 -26 6 -8 16 -14 22 -14 5 0 3 8 -6 18 -9 9 -20 37 -26 60
-12 58 -25 68 -16 15z"/>
<path d="M3408 1262 l-27 -18 36 -52 c20 -28 40 -49 45 -46 5 3 4 12 -2 19
-19 23 -1 38 36 32 37 -6 47 7 13 16 -12 3 -18 10 -15 16 11 18 -13 51 -37 51
-12 0 -34 -8 -49 -18z m56 2 c20 -8 20 -28 0 -48 -21 -21 -31 -20 -45 6 -10
18 -8 24 7 35 21 15 18 15 38 7z"/>
<path d="M1582 1198 c-19 -27 -31 -52 -28 -56 7 -6 5 -9 44 50 18 26 29 49 24
51 -4 3 -22 -17 -40 -45z"/>
<path d="M1681 1136 c-18 -32 -31 -59 -29 -61 2 -1 18 -10 36 -19 43 -22 53
-14 13 10 l-30 18 26 43 c13 23 23 48 21 55 -2 6 -19 -15 -37 -46z"/>
<path d="M3259 1166 c-8 -8 3 -136 12 -136 5 0 9 9 9 20 0 28 47 57 70 42 10
-6 21 -8 24 -5 3 4 -18 23 -46 44 -53 39 -61 43 -69 35z m45 -63 c-27 -20 -34
-16 -34 17 l0 30 26 -17 c25 -16 25 -17 8 -30z"/>
<path d="M1838 1067 c-32 -78 -32 -74 7 -87 44 -15 81 -7 96 21 21 41 -7 85
-66 103 -16 5 -23 -2 -37 -37z m62 8 c38 -19 40 -58 6 -80 -19 -13 -28 -14
-50 -4 -15 7 -25 15 -24 18 2 3 10 23 18 44 8 20 16 37 18 37 1 0 16 -7 32
-15z"/>
<path d="M3128 1105 c-3 -4 0 -22 8 -40 20 -48 18 -73 -6 -80 -27 -9 -46 8
-60 51 -6 19 -16 34 -21 34 -13 0 -12 -4 12 -54 12 -26 29 -46 42 -50 29 -7
67 19 66 47 -1 29 -32 100 -41 92z"/>
<path d="M2908 1027 c-41 -11 -52 -28 -16 -24 18 2 24 -6 35 -45 19 -66 35
-61 17 5 -7 28 -14 53 -14 55 0 1 6 2 14 2 8 0 18 5 21 10 7 12 -7 11 -57 -3z"/>
<path d="M2141 991 c-12 -22 1 -41 45 -67 15 -10 16 -15 7 -25 -10 -10 -18
-10 -39 0 -32 14 -44 7 -14 -9 59 -31 99 25 41 58 -38 21 -34 38 9 35 36 -1
29 12 -12 22 -20 5 -29 2 -37 -14z"/>
<path d="M2742 990 c-34 -14 -47 -51 -31 -86 11 -23 22 -30 50 -32 25 -2 40 2
50 14 13 16 12 17 -6 10 -42 -17 -51 -17 -70 4 -15 16 -17 26 -9 48 8 22 16
27 42 27 34 0 42 9 16 19 -9 3 -16 6 -17 5 -1 0 -12 -4 -25 -9z"/>
<path d="M2322 920 c-19 -33 -29 -60 -24 -60 6 0 12 6 15 13 7 18 68 9 84 -12
8 -10 12 -11 13 -4 0 19 -41 123 -48 123 -4 0 -22 -27 -40 -60z m48 21 c0 -5
3 -16 6 -25 5 -12 0 -16 -20 -16 -24 0 -25 2 -14 25 11 24 28 34 28 16z"/>
<path d="M2501 938 c1 -18 5 -46 9 -63 7 -28 8 -26 9 15 l1 44 45 -44 45 -44
0 62 c0 39 -4 62 -11 62 -8 0 -10 -14 -6 -40 3 -22 3 -40 0 -40 -4 0 -21 18
-40 40 -42 48 -53 50 -52 8z"/>
</g>
</svg>
